# xmcd
#
# Track frame offsets:
#	150
#	16003
#	35099
#	57422
#	82696
#	98552
#	118815
#	134892
#	149107
#	167314
#	182459
#	197772
#	211688
#	228965
#	245805
#	260331
#	273482
#	290691
#	307864
#	322246
#
# Disc length: 4572 seconds
#
# Revision: 0
# Processed by: cddbd v1.5.1PL0 Copyright (c) Steve Scherf et al.
# Submitted via: dBpowerAMP V4.0
#
DISCID=2311da14
DTITLE=Zeca Pagodinho - A Arte de Zeca Pagodinho
DYEAR=2004
DGENRE=Samba
TTITLE0=Maneiras
TTITLE1=Verdade
TTITLE2=Samba Pras Moças
TTITLE3=Pisa Como Eu Pisei - Brincadeira Tem Hora - Quando Eu Cantar (Iaiá)
TTITLE4=Alto Lá
TTITLE5=Vai Vadiar
TTITLE6=O Dono Da Dor
TTITLE7=Maneco Telecoteco
TTITLE8=Com Que Roupa
TTITLE9=SPC
TTITLE10=Delegado Chico Palha
TTITLE11=Coração em Desalinho
TTITLE12=Casal Sem Vergonha
TTITLE13=Samba do Approach
TTITLE14=A Rita
TTITLE15=Conflito
TTITLE16=Bagaço da Laranja
TTITLE17=Tempo de Don Don
TTITLE18=Prá Frente Brasil
TTITLE19=Deixa a Vida me Levar
EXTD=Ripped by Cacá - SP
EXTT0=
EXTT1=
EXTT2=
EXTT3=
EXTT4=
EXTT5=
EXTT6=
EXTT7=
EXTT8=
EXTT9=
EXTT10=
EXTT11=
EXTT12=
EXTT13=
EXTT14=
EXTT15=
EXTT16=
EXTT17=
EXTT18=
EXTT19=
PLAYORDER=
